<?xml version="1.0" encoding="UTF-8" standalone="no"?>
<svg
   xmlns:dc="http://purl.org/dc/elements/1.1/"
   xmlns:cc="http://creativecommons.org/ns#"
   xmlns:rdf="http://www.w3.org/1999/02/22-rdf-syntax-ns#"
   xmlns:svg="http://www.w3.org/2000/svg"
   xmlns="http://www.w3.org/2000/svg"
   xmlns:sodipodi="http://sodipodi.sourceforge.net/DTD/sodipodi-0.dtd"
   xmlns:inkscape="http://www.inkscape.org/namespaces/inkscape"
   id="svg"
   version="1.1"
   width="399.60599"
   height="399.93201"
   style="display:block"
   sodipodi:docname="logo.svg"
   inkscape:version="0.92.1 r">
  <metadata
     id="metadata13">
    <rdf:RDF>
      <cc:Work
         rdf:about="">
        <dc:format>image/svg+xml</dc:format>
        <dc:type
           rdf:resource="http://purl.org/dc/dcmitype/StillImage" />
        <dc:title></dc:title>
      </cc:Work>
    </rdf:RDF>
  </metadata>
  <defs
     id="defs11" />
  <sodipodi:namedview
     pagecolor="#ffffff"
     bordercolor="#666666"
     borderopacity="1"
     objecttolerance="10"
     gridtolerance="10"
     guidetolerance="10"
     inkscape:pageopacity="0"
     inkscape:pageshadow="2"
     inkscape:window-width="1920"
     inkscape:window-height="1011"
     id="namedview9"
     showgrid="false"
     inkscape:zoom="0.944"
     inkscape:cx="236.33123"
     inkscape:cy="152.39402"
     inkscape:window-x="0"
     inkscape:window-y="27"
     inkscape:window-maximized="1"
     inkscape:current-layer="svg" />
  <g
     style="display:block"
     id="svgg"
     transform="translate(0.15413383,-0.45763266)">
    <path
       id="path0"
       d="m 173.058,94.157 c -0.958,0.186 -3.353,1.757 -5.323,3.491 l -3.581,3.152 h -10.309 c -20.621,0 -30.82,5.683 -35.627,19.851 l -1.815,5.349 -0.227,67.4 -0.228,67.4 h 9.226 9.226 l 0.025,-62.2 c 0.029,-74.99 0.158,-76.433 7.203,-80.572 3.171,-1.862 24.772,-3.03 24.772,-1.338 0,4.176 12.469,6.194 18.053,2.921 14.067,-8.243 4.939,-28.634 -11.395,-25.454 m 69.758,5.897 c -40.333,6.741 -56.225,57.648 -27.092,86.781 5.176,5.176 18.174,14.239 28.676,19.994 37.971,20.809 51.922,40.89 45.576,65.603 -5.541,21.578 -22.173,33.168 -47.598,33.168 h -12.654 l -0.926,-2.805 C 227.543,298.992 220.72,291.691 216.52,289.658 213.378,288.137 211.663,288 195.747,288 H 178.4 v 5.6 5.6 H 166 153.6 v 4 4 h 12.4 12.4 v 8.4 8.4 H 166 153.6 v 4 4 h 12.4 12.4 v 6 6 h 15.646 c 22.274,0 26.034,-1.554 33.899,-14.007 l 3.26,-5.162 11.798,0.098 c 36.498,0.305 62.218,-21.313 66.671,-56.038 3.772,-29.414 -9.84,-50.712 -46.074,-72.085 -16.968,-10.009 -29.072,-18.278 -34.068,-23.274 -18.512,-18.512 -8.872,-49.696 16.793,-54.324 16.42,-2.96 33.357,8.334 35.762,23.848 l 0.535,3.456 8.089,-0.556 c 9.729,-0.669 9.294,-0.453 9.269,-4.603 -0.147,-25.264 -28.885,-46.026 -57.164,-41.299 m -85.729,42.284 c -1.382,0.843 -2.753,1.921 -3.047,2.397 -0.322,0.521 -3.537,0.865 -8.087,0.865 H 138.4 v 7.2 7.2 h 7.253 c 6.647,0 7.49,0.181 10.085,2.159 7.734,5.9 18.97,0.357 18.97,-9.359 0,-9.012 -10.132,-15.028 -17.621,-10.462 m 87.651,4 c -6.052,6.053 0.582,15.507 8.386,11.951 1.099,-0.501 2.58,-2.135 3.289,-3.63 3.572,-7.526 -5.794,-14.201 -11.675,-8.321 M 97.6,152.8 v 7.2 h 7.2 7.2 v -7.2 -7.2 h -7.2 -7.2 v 7.2"
       inkscape:connector-curvature="0"
       style="fill:#ffffff;fill-rule:evenodd;stroke:none" />
    <path
       id="path1"
       d="M 176.4,1.688 C 122.345,8.301 71.576,37.273 40.57,79.2 c -3.417,4.62 -6.482,8.76 -6.811,9.2 -34.999,46.74 -43.857,126.69 -20.491,184.949 5.244,13.076 15.66,32.973 20.414,38.996 0.372,0.47 3.471,4.635 6.888,9.255 55.988,75.708 164.389,100.633 249.43,57.352 55.332,-28.161 95.716,-81.62 106.017,-140.343 0.908,-5.175 2.036,-10.489 2.507,-11.809 1.606,-4.499 1.826,-38.835 0.325,-50.844 C 385.192,66.667 285.249,-11.63 176.4,1.688 m 7.063,93.003 c 1.436,0.6 3.554,2.211 4.706,3.58 10.936,12.997 -5.356,32.92 -20.051,24.519 -4.98,-2.847 -19.485,-2.958 -24.902,-0.19 -7.241,3.7 -6.785,-1.152 -7.038,74.8 l -0.222,66.6 h -9.515 -9.514 l -0.458,-2.2 c -1.045,-5.013 -0.802,-131.676 0.261,-136.528 3.89,-17.749 13.16,-24.042 36.87,-25.03 10.06,-0.419 11.739,-0.681 12.65,-1.969 2.875,-4.069 11.669,-5.898 17.213,-3.582 m 81.66,6.089 c 19.856,5.079 35.064,22.763 35.218,40.953 0.072,8.448 0.999,7.646 -9.612,8.317 l -8.847,0.56 -1.313,-5.32 c -6.745,-27.331 -45.345,-29.952 -58.25,-3.956 -1.578,3.18 -1.906,5.018 -1.846,10.356 0.178,15.762 8.782,24.521 44.553,45.354 32.417,18.88 45.374,37.214 45.374,64.207 0,40.907 -24.497,65.664 -66.591,67.299 l -12.591,0.488 -2.328,4.081 c -7.399,12.969 -9.985,14.081 -32.743,14.081 H 178.4 v -6 -6 h -12 c -10.133,0 -12,-0.187 -12,-1.2 0,-0.66 -0.36,-1.2 -0.8,-1.2 -0.44,0 -0.8,-1.98 -0.8,-4.4 V 324 l 5,-0.004 c 2.75,-0.002 8.51,-0.237 12.8,-0.521 l 7.8,-0.516 v -6.68 -6.679 h -12 c -10.133,0 -12,-0.187 -12,-1.2 0,-0.66 -0.36,-1.2 -0.8,-1.2 -0.44,0 -0.8,-1.98 -0.8,-4.4 v -4.4 h 12.8 12.8 v -5.6 -5.6 l 17,0.008 c 22.029,0.01 27.581,2.465 33.602,14.858 l 1.794,3.693 12.402,-0.333 c 34.781,-0.936 54.993,-26.666 44.009,-56.025 -4.451,-11.895 -17.279,-23.047 -45.028,-39.143 -32.517,-18.862 -42.604,-32.333 -42.422,-56.658 0.274,-36.72 31.057,-61.595 65.366,-52.82 M 169.6,142.296 c 13.459,9.766 -0.982,32.23 -14.724,22.904 -2.524,-1.713 -3.848,-2 -9.218,-2 -7.438,0 -7.23,0.315 -7.247,-11 l -0.011,-7.4 h 7.476 c 6.479,0 7.671,-0.215 8.935,-1.612 3.032,-3.35 10.759,-3.816 14.789,-0.892 m 85.082,3.164 c 4.277,3.856 4.877,9.505 1.38,13.002 -5.398,5.397 -14.462,0.982 -14.462,-7.044 0,-6.365 8.391,-10.186 13.082,-5.958 m -141.595,3.14 c 0.272,1.65 0.499,5.61 0.504,8.8 l 0.009,5.8 h -7.5 -7.5 l -0.5,-2.5 c -0.275,-1.375 -0.5,-5.335 -0.5,-8.8 v -6.3 h 7.495 7.496 l 0.496,3"
       inkscape:connector-curvature="0"
       style="fill:#009fe3;fill-rule:evenodd;stroke:none" />
    <path
       id="path2"
       d="m 146.851,116.849 c -11.815,1.978 -11.211,-2.095 -11.473,77.351 l -0.222,67.4 h -9.178 c -7.625,0 -9.178,0.203 -9.178,1.2 0,1 1.598,1.2 9.578,1.2 h 9.578 l 0.222,-66.6 c 0.253,-75.952 -0.203,-71.1 7.038,-74.8 5.417,-2.768 19.922,-2.657 24.902,0.19 5.845,3.342 12.952,2.468 18.082,-2.223 2.787,-2.549 2.125,-3.139 -1.08,-0.964 -5.662,3.842 -12.179,3.379 -17.439,-1.239 -2.917,-2.562 -11.045,-3.153 -20.83,-1.515 m 96.292,3.445 c -8.598,2.318 -17.667,10.467 -20.715,18.614 -1.962,5.244 -1.77,6.529 0.281,1.88 11.199,-25.383 51.236,-22.339 57.834,4.397 l 1.287,5.215 h 2.964 c 10.229,0 15.206,-0.976 15.206,-2.981 0,-2.079 -1.344,-2.131 -14.126,-0.554 l -3.325,0.411 -0.905,-4.238 c -3.636,-17.03 -21.203,-27.408 -38.501,-22.744 M 112.637,155 l -0.237,5.4 -7,0.231 c -10.628,0.351 -10.11,2.569 0.6,2.569 h 7.6 v -6.8 c 0,-8.113 -0.629,-9.028 -0.963,-1.4 m 86.933,1.11 c 1.13,23.034 11.341,36.01 42.609,54.148 33.32,19.328 44.111,30.203 47.349,47.717 1.162,6.286 1.958,6.795 1.288,0.825 -2.295,-20.466 -13.304,-32.476 -48.016,-52.381 -29.214,-16.752 -39.421,-28.673 -42.46,-49.589 l -1.108,-7.63 0.338,6.91 m 58.03,-3.723 c 0,5.128 -6.61,8.535 -11.667,6.015 l -3.133,-1.562 2.245,1.98 c 5.048,4.454 13.355,0.996 13.355,-5.558 0,-1.574 -0.18,-2.862 -0.4,-2.862 -0.22,0 -0.4,0.894 -0.4,1.987 M 139.2,162 c 0,0.966 1.24,1.2 6.364,1.2 5.47,0 6.779,0.281 9.312,2 4.76,3.23 12.177,2.435 15.582,-1.671 1.077,-1.298 0.997,-1.301 -1.418,-0.053 -3.904,2.019 -9.682,1.723 -13.212,-0.676 -3.61,-2.453 -16.628,-3.079 -16.628,-0.8 m 167.02,123.382 c -8.912,24.862 -33.343,40.218 -63.988,40.218 h -11.435 l -1.958,3.691 C 222.031,342.124 217.811,344 195.747,344 c -16.814,0 -17.347,0.049 -17.347,1.6 0,2.52 33.72,2.459 38.945,-0.07 3.915,-1.895 8.132,-6.429 11.545,-12.411 l 2.328,-4.081 12.591,-0.488 c 23.139,-0.899 36.542,-6.247 49.149,-19.612 7.229,-7.662 15.974,-23.343 14.868,-26.659 -0.131,-0.393 -0.854,1.003 -1.606,3.103 M 154.4,308.4 c 0,1.013 1.867,1.2 12,1.2 10.133,0 12,-0.187 12,-1.2 0,-1.013 -1.867,-1.2 -12,-1.2 -10.133,0 -12,0.187 -12,1.2 m 0,25.6 c 0,1.013 1.867,1.2 12,1.2 10.133,0 12,-0.187 12,-1.2 0,-1.013 -1.867,-1.2 -12,-1.2 -10.133,0 -12,0.187 -12,1.2"
       inkscape:connector-curvature="0"
       style="fill:#1d6cac;fill-rule:evenodd;stroke:none" />
    <path
       id="path3"
       d="m 272.8,127.6 c 1.493,1.54 2.894,2.8 3.114,2.8 0.22,0 -0.821,-1.26 -2.314,-2.8 -1.493,-1.54 -2.894,-2.8 -3.114,-2.8 -0.22,0 0.821,1.26 2.314,2.8 m -131,17.788 c 2.09,0.165 5.51,0.165 7.6,0 2.09,-0.165 0.38,-0.3 -3.8,-0.3 -4.18,0 -5.89,0.135 -3.8,0.3 M 115.532,165.6 c 0,8.14 0.119,11.47 0.264,7.4 0.145,-4.07 0.145,-10.73 0,-14.8 -0.145,-4.07 -0.264,-0.74 -0.264,7.4 m -13.708,-5.011 c 2.103,0.165 5.343,0.163 7.2,-0.004 1.857,-0.168 0.136,-0.303 -3.824,-0.301 -3.96,0.002 -5.479,0.14 -3.376,0.305 m 43.733,0.009 c 4.285,0.151 8.095,0.685 8.8,1.234 1.093,0.851 1.11,0.799 0.145,-0.432 -0.928,-1.183 -2.289,-1.374 -8.8,-1.234 l -7.702,0.166 7.557,0.266 M 291.6,216.8 c 2.167,2.2 4.12,4 4.34,4 0.22,0 -1.373,-1.8 -3.54,-4 -2.167,-2.2 -4.12,-4 -4.34,-4 -0.22,0 1.373,1.8 3.54,4 M 276,229.05 c 0,0.138 1.17,1.308 2.6,2.6 l 2.6,2.35 -2.35,-2.6 c -2.19,-2.424 -2.85,-2.968 -2.85,-2.35 m -105.818,94.727 c 1.42,0.177 3.94,0.18 5.6,0.007 1.66,-0.173 0.498,-0.318 -2.582,-0.321 -3.08,-0.004 -4.438,0.138 -3.018,0.314"
       inkscape:connector-curvature="0"
       style="fill:#73abdd;fill-rule:evenodd;stroke:none" />
    <path
       id="path4"
       d="m 152.6,100.59 c 2.31,0.161 6.09,0.161 8.4,0 2.31,-0.162 0.42,-0.294 -4.2,-0.294 -4.62,0 -6.51,0.132 -4.2,0.294 m 133.8,12.61 c 1.493,1.54 2.894,2.8 3.114,2.8 0.22,0 -0.821,-1.26 -2.314,-2.8 -1.493,-1.54 -2.894,-2.8 -3.114,-2.8 -0.22,0 0.821,1.26 2.314,2.8 m -36.2,5.765 c 0.99,0.19 2.61,0.19 3.6,0 0.99,-0.191 0.18,-0.347 -1.8,-0.347 -1.98,0 -2.79,0.156 -1.8,0.347 m -115.8,78.61 v 63.174 l -9.4,0.254 -9.4,0.253 9.8,0.172 9.8,0.172 V 198 c 0,-34.98 -0.18,-63.6 -0.4,-63.6 -0.22,0 -0.4,28.429 -0.4,63.175 M 299.848,142.8 c -0.18,1.54 -0.039,2.8 0.313,2.8 0.351,0 0.639,-1.26 0.639,-2.8 0,-1.54 -0.141,-2.8 -0.312,-2.8 -0.172,0 -0.46,1.26 -0.64,2.8 m -187.56,10 c 0,4.18 0.135,5.89 0.3,3.8 0.165,-2.09 0.165,-5.51 0,-7.6 -0.165,-2.09 -0.3,-0.38 -0.3,3.8 m 87.93,-2.4 c 0,1.98 0.156,2.79 0.347,1.8 0.19,-0.99 0.19,-2.61 0,-3.6 -0.191,-0.99 -0.347,-0.18 -0.347,1.8 m 26.982,21.05 c 0,0.138 1.17,1.308 2.6,2.6 l 2.6,2.35 -2.35,-2.6 c -2.19,-2.424 -2.85,-2.968 -2.85,-2.35 m -40.6,116.347 c 4.73,0.141 12.47,0.141 17.2,0 4.73,-0.141 0.86,-0.257 -8.6,-0.257 -9.46,0 -13.33,0.116 -8.6,0.257 m 34.2,4.453 c 0,0.138 1.17,1.308 2.6,2.6 l 2.6,2.35 -2.35,-2.6 c -2.19,-2.424 -2.85,-2.968 -2.85,-2.35 m -67.676,7.258 c -0.234,0.61 -0.285,2.68 -0.114,4.6 0.308,3.469 0.311,3.465 0.45,-0.688 l 0.14,-4.179 12.6,-0.243 12.6,-0.242 -12.625,-0.178 c -10.143,-0.143 -12.709,0.04 -13.051,0.93 M 291.2,306.8 c -1.943,1.98 -3.353,3.6 -3.133,3.6 0.22,0 1.99,-1.62 3.933,-3.6 1.943,-1.98 3.353,-3.6 3.133,-3.6 -0.22,0 -1.99,1.62 -3.933,3.6 m -138.076,21.2 0.076,4.4 12.4,0.03 12.4,0.031 -12.159,-0.251 -12.159,-0.25 -0.317,-4.18 -0.318,-4.18 0.077,4.4 m 81.076,-2.614 c 1.87,0.168 4.93,0.168 6.8,0 1.87,-0.169 0.34,-0.306 -3.4,-0.306 -3.74,0 -5.27,0.137 -3.4,0.306"
       inkscape:connector-curvature="0"
       style="fill:#b4cded;fill-rule:evenodd;stroke:none" />
  </g>
</svg>
