<?xml version="1.0" encoding="UTF-8" standalone="no"?>
<svg
   xmlns:dc="http://purl.org/dc/elements/1.1/"
   xmlns:cc="http://creativecommons.org/ns#"
   xmlns:rdf="http://www.w3.org/1999/02/22-rdf-syntax-ns#"
   xmlns:svg="http://www.w3.org/2000/svg"
   xmlns="http://www.w3.org/2000/svg"
   xmlns:sodipodi="http://sodipodi.sourceforge.net/DTD/sodipodi-0.dtd"
   xmlns:inkscape="http://www.inkscape.org/namespaces/inkscape"
   id="svg"
   version="1.1"
   width="399.595"
   height="399.07101"
   style="display:block"
   sodipodi:docname="image2vector (1).svg"
   inkscape:version="0.92.1 r">
  <metadata
     id="metadata18">
    <rdf:RDF>
      <cc:Work
         rdf:about="">
        <dc:format>image/svg+xml</dc:format>
        <dc:type
           rdf:resource="http://purl.org/dc/dcmitype/StillImage" />
        <dc:title></dc:title>
      </cc:Work>
    </rdf:RDF>
  </metadata>
  <defs
     id="defs16" />
  <sodipodi:namedview
     pagecolor="#ffffff"
     bordercolor="#666666"
     borderopacity="1"
     objecttolerance="10"
     gridtolerance="10"
     guidetolerance="10"
     inkscape:pageopacity="0"
     inkscape:pageshadow="2"
     inkscape:window-width="1920"
     inkscape:window-height="1011"
     id="namedview14"
     showgrid="false"
     inkscape:zoom="1.3350176"
     inkscape:cx="424.59152"
     inkscape:cy="164.40407"
     inkscape:window-x="0"
     inkscape:window-y="27"
     inkscape:window-maximized="1"
     inkscape:current-layer="svg" />
  <g
     id="svgg"
     transform="translate(-1.3695902,-0.73220228)">
    <path
       id="path0"
       d="m 172,94.874 c -1.54,0.666 -3.88,2.243 -5.2,3.505 -2.385,2.279 -2.476,2.296 -14.4,2.626 -20.838,0.578 -29.318,5.548 -34.317,20.116 -1.64,4.777 -1.68,6.283 -1.909,72.279 l -0.234,67.4 h 9.2 9.199 l 0.231,-66.6 0.23,-66.6 2,-3.987 c 3.112,-6.203 5.436,-7.156 18.272,-7.493 10.509,-0.276 10.706,-0.249 12.8,1.749 5.765,5.498 14.412,4.919 19.901,-1.333 C 197.187,105.815 185.096,89.21 172,94.874 m 71.522,5.071 c -36.595,5.839 -54.977,49.024 -33.905,79.655 5.202,7.562 14.394,15.039 29.183,23.739 42.748,25.146 53.381,37.513 52.228,60.742 -1.27,25.563 -18.93,40.911 -48.369,42.036 l -12.14,0.464 -2.142,-4.291 C 222.233,289.985 217.683,288 195.627,288 H 178.4 v 5.6 5.6 H 166 153.6 v 4 4 h 12.4 12.4 v 8.4 8.4 H 166 153.6 v 4 4 h 12.4 12.4 l -0.001,5.8 -0.001,5.8 18.201,-0.4 c 22.187,-0.488 25.497,-1.998 32.239,-14.708 l 1.957,-3.688 12.003,0.071 c 36.681,0.217 62.641,-21.501 66.824,-55.906 3.732,-30.69 -10.681,-52.204 -49.877,-74.451 -37.297,-21.169 -47.556,-37.738 -36.366,-58.733 13.734,-25.767 54.367,-20.738 58.707,7.266 l 0.535,3.452 7.289,-0.518 c 11.258,-0.8 11.789,-1.53 8.928,-12.28 -5.989,-22.499 -30.839,-37.666 -55.316,-33.76 M 158,141.865 c -1.32,0.599 -2.895,1.685 -3.498,2.412 -0.878,1.058 -2.598,1.323 -8.6,1.323 H 138.4 v 7.2 7.2 h 7.553 c 4.685,0 7.762,0.338 8.103,0.891 2.339,3.784 11.253,4.565 15.729,1.377 11.205,-7.978 0.743,-26.09 -11.785,-20.403 m 88.686,2.928 c -4.308,1.739 -5.642,7.957 -2.486,11.589 2.75,3.165 6.863,3.503 10.044,0.826 6.51,-5.478 0.345,-15.604 -7.558,-12.415 M 97.6,152.8 v 7.2 h 7.2 7.2 v -7.2 -7.2 h -7.2 -7.2 v 7.2"
       inkscape:connector-curvature="0"
       style="fill:#ffffff;fill-rule:evenodd;stroke:none" />
    <path
       id="path1"
       d="m 182.333,1.097 c -0.183,0.163 -2.892,0.515 -6.019,0.781 -3.128,0.267 -6.188,0.652 -6.8,0.855 -0.613,0.204 -2.554,0.559 -4.314,0.79 -4.122,0.541 -21.385,4.818 -25.8,6.393 -1.87,0.667 -3.4,1.005 -3.4,0.751 0,-0.255 -0.45,-0.106 -1,0.331 -0.787,0.624 -5.231,2.357 -7.8,3.04 -0.465,0.124 -3.517,1.486 -12.372,5.523 -22.447,10.233 -49.962,31.317 -66.333,50.829 -3.272,3.899 -6.191,6.847 -6.488,6.55 -0.297,-0.297 -0.427,-0.18 -0.289,0.26 0.328,1.044 -3.699,6.912 -4.389,6.396 -0.291,-0.218 -0.367,-0.174 -0.168,0.098 0.198,0.272 -1.361,3.062 -3.465,6.2 -5.104,7.613 -12.503,20.936 -15.666,28.209 -1.41,3.243 -2.862,5.627 -3.225,5.297 -0.364,-0.33 -0.437,-0.205 -0.162,0.277 0.686,1.205 -4.576,15.708 -5.421,14.94 -0.373,-0.339 -0.424,-0.174 -0.113,0.367 0.585,1.017 -0.997,7.413 -1.836,7.42 -0.26,0.002 -0.541,1.317 -0.625,2.923 -0.083,1.605 -0.443,3.134 -0.8,3.396 -0.356,0.262 -0.692,1.377 -0.745,2.477 -0.053,1.1 -0.856,6.224 -1.784,11.388 -3.778,21.014 -3.777,46.615 10e-4,67.633 0.928,5.158 1.73,10.279 1.783,11.379 0.053,1.1 0.389,2.215 0.745,2.477 0.357,0.262 0.717,1.791 0.8,3.396 0.084,1.606 0.365,2.921 0.625,2.923 0.839,0.007 2.421,6.403 1.836,7.42 -0.311,0.541 -0.26,0.706 0.113,0.367 0.845,-0.768 6.107,13.735 5.421,14.94 -0.275,0.482 -0.207,0.612 0.15,0.289 0.357,-0.323 1.985,2.428 3.618,6.113 3.448,7.783 9.846,19.237 15.294,27.381 2.099,3.138 3.564,6.018 3.256,6.4 -0.309,0.382 -0.233,0.426 0.168,0.098 0.819,-0.669 4.981,4.95 4.589,6.196 -0.138,0.44 -0.008,0.557 0.289,0.26 0.297,-0.297 3.216,2.651 6.488,6.55 16.371,19.512 43.886,40.596 66.333,50.829 8.855,4.037 11.907,5.399 12.372,5.523 2.569,0.683 7.013,2.416 7.8,3.04 0.55,0.437 1,0.586 1,0.331 0,-0.254 1.53,0.084 3.4,0.751 3.425,1.222 20.885,5.669 24.6,6.266 1.1,0.177 3.62,0.573 5.6,0.88 1.98,0.307 4.32,0.736 5.2,0.953 2.98,0.736 43.6,1.211 43.598,0.511 -0.001,-0.382 -14.646,-15.274 -32.545,-33.094 L 153.31,334 l -0.055,-5.2 -0.055,-5.2 7.15,-0.233 7.15,-0.234 -7.08,-7.112 c -7.06,-7.094 -7.08,-7.126 -7.429,-11.767 L 152.642,299.6 134.121,280.994 115.6,262.388 115.381,220.994 115.163,179.6 106.581,170.988 98,162.377 97.729,153.588 97.458,144.8 h 7.671 7.671 v 2.302 c 0,1.266 0.487,2.706 1.081,3.2 0.897,0.744 1.177,-1.151 1.64,-11.086 1.396,-29.994 10.903,-39.189 40.54,-39.21 7.934,-0.006 8.574,-0.128 10.297,-1.961 3.098,-3.298 6.762,-4.57 12.428,-4.316 l 5.132,0.231 12.925,12.908 12.926,12.908 5.316,-5.312 c 20.374,-20.358 52.969,-20.802 71.781,-0.977 17.857,18.818 111.555,112.358 112.051,111.862 1.063,-1.062 1.331,-36.806 0.348,-46.302 C 389.699,86.693 315.22,11.722 223.032,1.649 215.86,0.865 183.093,0.421 182.333,1.097"
       inkscape:connector-curvature="0"
       style="fill:#009fe3;fill-rule:evenodd;stroke:none" />
    <path
       id="path2"
       d="m 115.492,144.4 c 0.002,4.4 0.137,6.098 0.299,3.773 0.162,-2.325 0.16,-5.925 -0.004,-8 -0.164,-2.075 -0.297,-0.173 -0.295,4.227 m -14.065,0.991 c 2.325,0.162 5.925,0.16 8,-0.004 2.075,-0.164 0.173,-0.297 -4.227,-0.295 -4.4,0.002 -6.098,0.137 -3.773,0.299 m 14.145,75.009 c -0.001,22.44 0.102,31.735 0.227,20.656 0.126,-11.079 0.126,-29.439 10e-4,-40.8 -0.126,-11.361 -0.228,-2.296 -0.228,20.144 M 157,323.788 c 2.09,0.165 5.51,0.165 7.6,0 2.09,-0.165 0.38,-0.3 -3.8,-0.3 -4.18,0 -5.89,0.135 -3.8,0.3"
       inkscape:connector-curvature="0"
       style="fill:#22bcef;fill-rule:evenodd;stroke:none" />
    <path
       id="path3"
       d="m 148.8,116.779 c -6.075,0.787 -9.257,2.64 -11.392,6.637 l -1.808,3.384 -0.226,67.4 -0.226,67.4 h -9.174 c -5.583,0 -9.174,0.313 -9.174,0.8 0,0.489 3.727,0.8 9.582,0.8 h 9.583 l 0.217,-67 c 0.246,-75.72 -0.224,-70.454 6.618,-74.02 5.456,-2.842 20.667,-3.036 24.679,-0.314 5.956,4.042 14.118,3.211 18.521,-1.886 l 1.6,-1.852 -2.517,1.825 c -5.059,3.668 -13.153,2.951 -17.577,-1.558 -2.502,-2.55 -7.892,-3.016 -18.706,-1.616 m 92.991,4.098 c -7.381,2.338 -19.557,13.577 -19.349,17.86 0.023,0.474 0.634,-0.037 1.358,-1.137 9.743,-14.801 30.754,-19.567 44.472,-10.089 7.5,5.182 13.328,14.408 13.328,21.098 0,1.884 0.096,1.909 5.4,1.421 12.422,-1.145 13,-1.276 13,-2.963 0,-1.449 -0.388,-1.541 -4.6,-1.1 -14.243,1.495 -12.888,1.587 -13.441,-0.913 -1.85,-8.365 -2.927,-10.709 -6.932,-15.091 -9.108,-9.965 -20.57,-13.099 -33.236,-9.086 m 13.936,35.645 c -2.043,2.736 -5.008,3.736 -8.062,2.72 -2.27,-0.755 -2.342,-0.726 -0.912,0.369 3.147,2.41 11.914,-1.007 10.761,-4.195 -0.173,-0.477 -0.977,0.02 -1.787,1.106 m -55.663,2.75 c -0.525,17.081 13.793,34.27 41.936,50.347 29.036,16.587 43.342,29.992 47.167,44.193 0.753,2.797 1.145,3.485 1.18,2.072 0.365,-14.639 -13.576,-29.268 -46.453,-48.747 -29.527,-17.494 -38.853,-27.307 -42.674,-44.904 -0.601,-2.768 -1.121,-4.101 -1.156,-2.961 M 98.598,161.8 c 0.536,1.62 14.202,1.842 14.202,0.231 0,-1.018 -1.259,-1.231 -7.267,-1.231 -5.456,0 -7.184,0.249 -6.935,1 M 139.2,162 c 0,0.974 1.297,1.2 6.874,1.2 5.632,0 7.236,0.285 8.881,1.579 3.897,3.065 11.237,2.776 13.981,-0.551 0.941,-1.141 0.879,-1.192 -0.536,-0.44 -3.62,1.922 -9.059,1.499 -12.724,-0.988 -3.613,-2.452 -16.476,-3.077 -16.476,-0.8 m 163.221,131.45 c -10.107,19.7 -30.76,31.192 -57.408,31.942 l -13.787,0.389 -2.331,3.788 c -3.351,5.446 -7.172,9.579 -11.252,12.171 l -3.556,2.26 h -17.444 c -16.91,0 -17.443,0.049 -17.443,1.6 0,1.827 29.239,2.469 35.335,0.776 4.131,-1.148 10.13,-6.842 13.776,-13.075 l 3.1,-5.301 10.894,-0.011 c 24.193,-0.023 41.144,-7.312 53.716,-23.098 3.672,-4.611 10.079,-15.857 9.413,-16.523 -0.147,-0.148 -1.503,2.139 -3.013,5.082 M 154.4,307.884 c 0,0.852 8.657,1.703 17.4,1.71 5.336,0.005 6.6,-0.224 6.6,-1.194 0,-1.013 -1.867,-1.2 -12,-1.2 -6.6,0 -12,0.308 -12,0.684 m 0,25.716 c 0,0.498 4.533,0.8 12,0.8 7.467,0 12,-0.302 12,-0.8 0,-0.498 -4.533,-0.8 -12,-0.8 -7.467,0 -12,0.302 -12,0.8"
       inkscape:connector-curvature="0"
       style="fill:#1d6cac;fill-rule:evenodd;stroke:none" />
    <path
       id="path4"
       d="m 113.084,156.4 c -0.002,3.96 0.133,5.681 0.301,3.824 0.167,-1.857 0.169,-5.097 0.004,-7.2 -0.165,-2.103 -0.303,-0.584 -0.305,3.376 m 8.316,107.392 c 2.75,0.157 7.25,0.157 10,0 2.75,-0.156 0.5,-0.284 -5,-0.284 -5.5,0 -7.75,0.128 -5,0.284 M 153.802,308 c 0.227,0.844 1.491,1.226 4.261,1.286 l 3.937,0.086 -3.587,-0.341 c -1.973,-0.188 -3.89,-0.766 -4.261,-1.286 -0.466,-0.653 -0.574,-0.575 -0.35,0.255 m 0.003,25.6 c 0.272,0.999 2.395,1.206 12.661,1.234 l 12.334,0.034 -11.967,-0.256 c -8.258,-0.177 -12.181,-0.56 -12.66,-1.234 -0.501,-0.705 -0.604,-0.643 -0.368,0.222"
       inkscape:connector-curvature="0"
       style="fill:#007cbc;fill-rule:evenodd;stroke:none" />
    <path
       id="path5"
       d="m 101.8,160.588 c 2.09,0.165 5.51,0.165 7.6,0 2.09,-0.165 0.38,-0.3 -3.8,-0.3 -4.18,0 -5.89,0.135 -3.8,0.3 m 40.824,0.001 c 2.103,0.165 5.343,0.163 7.2,-0.004 1.857,-0.168 0.136,-0.303 -3.824,-0.301 -3.96,0.002 -5.479,0.14 -3.376,0.305 M 290.648,261.2 c 0.004,2.64 0.154,3.624 0.332,2.186 0.178,-1.438 0.174,-3.598 -0.008,-4.8 -0.183,-1.202 -0.329,-0.026 -0.324,2.614"
       inkscape:connector-curvature="0"
       style="fill:#658cc1;fill-rule:evenodd;stroke:none" />
    <path
       id="path6"
       d="m 93.8,30.492 c -2.727,1.746 -3.609,2.919 -1.2,1.595 1.836,-1.009 4.711,-3.233 4.2,-3.248 -0.22,-0.007 -1.57,0.737 -3,1.653 m -14.342,9.906 c -3.158,2.402 -5.997,4.78 -6.308,5.283 -0.516,0.834 8.851,-6.114 11.621,-8.621 2.597,-2.35 0.107,-0.786 -5.313,3.338 M 59.735,57.8 C 47.018,70.429 34.739,85.546 30.007,94.4 c -1.357,2.538 1.075,-0.609 6.182,-8 7.702,-11.147 17.014,-21.942 27.198,-31.529 4.95,-4.659 8.735,-8.471 8.413,-8.471 -0.322,0 -5.752,5.13 -12.065,11.4 M 24.966,103 c -4.962,8.824 -6.569,11.952 -6.555,12.76 0.006,0.352 1.477,-2.06 3.269,-5.36 1.792,-3.3 4.333,-7.89 5.647,-10.2 1.315,-2.31 2.207,-4.2 1.983,-4.2 -0.225,0 -2.179,3.15 -4.344,7 m 165.797,-1 c 5.218,14.576 -11.237,28.542 -23.563,20 -6.157,-4.267 -24.118,-1.934 -28.201,3.662 -2.79,3.823 -2.961,8.019 -2.98,73.338 L 136,264 h -9.393 -9.393 l 17.384,17.4 17.384,17.4 13.209,-0.237 13.209,-0.238 v -5.562 -5.563 l 17,0.008 c 22.033,0.01 27.587,2.467 33.604,14.866 l 1.796,3.702 12.8,-0.365 c 21.245,-0.607 34.595,-8.191 42.621,-24.211 12.413,-24.78 -1.576,-47.877 -42.621,-70.371 -17.217,-9.435 -30.362,-19.962 -36.07,-28.884 -10.087,-15.768 -10.501,-38.593 -1.022,-56.294 l 3.186,-5.949 -9.752,-9.651 c -5.363,-5.308 -9.494,-8.931 -9.179,-8.051 M 15.178,122.959 c -2.936,7.035 -8.001,21.715 -7.934,22.998 0.024,0.464 1.756,-4.017 3.849,-9.957 2.092,-5.94 4.597,-12.566 5.565,-14.724 0.969,-2.158 1.618,-4.066 1.444,-4.241 -0.175,-0.175 -1.491,2.491 -2.924,5.924 m 231.053,0.306 c -14.101,1.596 -25.863,14.513 -25.804,28.335 0.066,15.386 8.801,24.591 41.07,43.278 35.705,20.678 48.903,38.614 48.903,66.458 0,40.52 -26.33,66.827 -66.8,66.743 -12.024,-0.025 -11.406,-0.264 -15.426,5.949 -7.98,12.334 -9.994,13.172 -31.642,13.172 H 179.4 l -0.5,-2.5 c -0.275,-1.375 -0.5,-4.075 -0.5,-6 v -3.5 h -11.789 -11.788 l 31.188,31.491 c 35.115,35.454 31.956,33.203 44.048,31.385 86.338,-12.978 155.488,-82.77 167.791,-169.349 l 0.408,-2.873 -51.602,-51.527 c -36.811,-36.757 -51.141,-50.596 -49.991,-48.279 3.671,7.395 5.267,20.471 2.781,22.78 -0.355,0.33 -4.465,0.85 -9.133,1.155 l -8.486,0.556 -0.538,-3.47 C 278.902,131.672 263.62,121.296 246.231,123.265 M 169.6,142.296 c 8.244,5.982 7.143,17.205 -2.306,23.499 -3.151,2.098 -8.698,1.829 -12.266,-0.595 -2.528,-1.718 -3.838,-2 -9.292,-2 -7.527,0 -7.308,0.329 -7.325,-11 l -0.011,-7.4 h 7.553 c 4.647,0 7.763,-0.34 8.098,-0.883 2.254,-3.646 11.439,-4.604 15.549,-1.621 m 85.377,3.481 c 5.952,5.556 2.944,15.023 -4.773,15.023 -3.807,0 -7.461,-3.36 -8.255,-7.589 -1.404,-7.485 7.518,-12.576 13.028,-7.434 M 6,149.6 c -0.304,1.383 -0.385,2.681 -0.182,2.885 0.204,0.204 0.601,-0.779 0.882,-2.185 0.667,-3.335 0.021,-3.981 -0.7,-0.7 m 107.6,7.123 v 6.417 l -7.219,0.23 -7.218,0.23 8.018,7.985 8.019,7.985 v -14.138 c 0,-8.562 -0.315,-14.333 -0.8,-14.632 -0.508,-0.314 -0.8,1.848 -0.8,5.923 M 4.444,156.444 c -0.301,1.606 -0.387,3.079 -0.192,3.275 0.196,0.196 0.602,-0.958 0.904,-2.563 0.301,-1.606 0.387,-3.079 0.192,-3.275 -0.196,-0.196 -0.602,0.958 -0.904,2.563 M 1.786,172 c 0,1.54 0.164,2.17 0.365,1.4 0.202,-0.77 0.202,-2.03 0,-2.8 -0.201,-0.77 -0.365,-0.14 -0.365,1.4 m -0.768,6.4 c 0,1.98 0.156,2.79 0.347,1.8 0.19,-0.99 0.19,-2.61 0,-3.6 -0.191,-0.99 -0.347,-0.18 -0.347,1.8 M 0.28,188.8 c 0,3.74 0.137,5.27 0.306,3.4 0.168,-1.87 0.168,-4.93 0,-6.8 -0.169,-1.87 -0.306,-0.34 -0.306,3.4 m 0,23.2 c 0,3.74 0.137,5.27 0.306,3.4 0.168,-1.87 0.168,-4.93 0,-6.8 C 0.417,206.73 0.28,208.26 0.28,212 m 0.738,10.4 c 0,1.98 0.156,2.79 0.347,1.8 0.19,-0.99 0.19,-2.61 0,-3.6 -0.191,-0.99 -0.347,-0.18 -0.347,1.8 m 0.768,6.4 c 0,1.54 0.164,2.17 0.365,1.4 0.202,-0.77 0.202,-2.03 0,-2.8 -0.201,-0.77 -0.365,-0.14 -0.365,1.4 M 4.159,242 c 0,0.88 0.289,2.5 0.641,3.6 0.507,1.584 0.641,1.667 0.641,0.4 0,-0.88 -0.289,-2.5 -0.641,-3.6 -0.507,-1.584 -0.641,-1.667 -0.641,-0.4 m 1.577,7.2 c -0.013,0.88 0.286,2.32 0.664,3.2 0.876,2.039 0.876,-0.065 0,-2.8 -0.515,-1.608 -0.645,-1.686 -0.664,-0.4 m 1.508,5.643 c -0.124,2.366 10.122,29.658 10.858,28.922 0.174,-0.175 -0.475,-2.083 -1.444,-4.241 C 15.69,277.366 13.185,270.74 11.093,264.8 9,258.86 7.268,254.379 7.244,254.843 m 11.156,30.25 c 0,0.867 3.976,8.507 4.427,8.507 0.22,0 -0.549,-1.89 -1.71,-4.2 -2.231,-4.443 -2.717,-5.212 -2.717,-4.307 m 4.8,9.49 c 0,0.724 5.716,10.217 6.152,10.217 0.201,0 -0.795,-2.07 -2.213,-4.6 -2.597,-4.632 -3.939,-6.546 -3.939,-5.617 m 6.807,11.817 c 5.765,10.787 24.09,32.438 36.65,43.304 3.158,2.733 1.69,1.096 -3.263,-3.638 -10.309,-9.854 -19.632,-20.705 -27.205,-31.666 -5.107,-7.391 -7.539,-10.538 -6.182,-8 m 130.59,9.8 6.97,7 h 5.416 5.417 v -6.761 -6.761 l -12.387,-0.239 -12.386,-0.239 6.97,7 m -85.291,40.755 c 3.004,2.735 11.624,9.005 9.494,6.907 -0.66,-0.65 -3.72,-3.065 -6.8,-5.367 -3.08,-2.301 -4.292,-2.994 -2.694,-1.54 M 92.4,369.214 c 0.88,0.717 2.32,1.657 3.2,2.089 l 1.6,0.785 -1.6,-1.302 c -0.88,-0.717 -2.32,-1.657 -3.2,-2.089 l -1.6,-0.785 1.6,1.302"
       inkscape:connector-curvature="0"
       style="fill:#2291d0;fill-rule:evenodd;stroke:none" />
    <path
       id="path7"
       d="m 141.8,145.388 c 2.09,0.165 5.51,0.165 7.6,0 2.09,-0.165 0.38,-0.3 -3.8,-0.3 -4.18,0 -5.89,0.135 -3.8,0.3 M 115.531,166 c 0,7.92 0.12,11.052 0.266,6.96 0.145,-4.093 0.144,-10.573 -0.002,-14.4 -0.146,-3.828 -0.265,-0.48 -0.264,7.44 m 175.636,50.2 c 3.315,3.532 4.033,4.167 4.033,3.567 0,-0.129 -1.71,-1.839 -3.8,-3.8 l -3.8,-3.567 3.567,3.8 M 170.182,323.777 c 1.42,0.177 3.94,0.18 5.6,0.007 1.66,-0.173 0.498,-0.318 -2.582,-0.321 -3.08,-0.004 -4.438,0.138 -3.018,0.314"
       inkscape:connector-curvature="0"
       style="fill:#73abdd;fill-rule:evenodd;stroke:none" />
    <path
       id="path8"
       d="m 152.6,100.59 c 2.31,0.161 6.09,0.161 8.4,0 2.31,-0.162 0.42,-0.294 -4.2,-0.294 -4.62,0 -6.51,0.132 -4.2,0.294 m 47.618,49.81 c 0,1.98 0.156,2.79 0.347,1.8 0.19,-0.99 0.19,-2.61 0,-3.6 -0.191,-0.99 -0.347,-0.18 -0.347,1.8 m -79.587,110.993 c 2.768,0.157 7.088,0.156 9.6,-0.003 2.513,-0.158 0.249,-0.286 -5.031,-0.285 -5.28,0.002 -7.336,0.131 -4.569,0.288 m 32.493,38.115 c -0.234,0.61 -0.285,2.68 -0.114,4.6 0.308,3.469 0.311,3.465 0.45,-0.688 l 0.14,-4.179 12.6,-0.243 12.6,-0.242 -12.625,-0.178 c -10.143,-0.143 -12.709,0.04 -13.051,0.93 M 153.04,328 c 0,2.42 0.15,3.41 0.333,2.2 0.183,-1.21 0.183,-3.19 0,-4.4 -0.183,-1.21 -0.333,-0.22 -0.333,2.2 m 80.76,-2.617 c 1.65,0.172 4.35,0.172 6,0 1.65,-0.173 0.3,-0.314 -3,-0.314 -3.3,0 -4.65,0.141 -3,0.314"
       inkscape:connector-curvature="0"
       style="fill:#b4cded;fill-rule:evenodd;stroke:none" />
    <path
       id="path9"
       d="m 134.781,196.4 c 0,35.64 0.099,50.337 0.219,32.66 0.12,-17.678 0.12,-46.838 0,-64.8 -0.12,-17.963 -0.219,-3.5 -0.219,32.14 m -22.493,-43.6 c 0,4.18 0.135,5.89 0.3,3.8 0.165,-2.09 0.165,-5.51 0,-7.6 -0.165,-2.09 -0.3,-0.38 -0.3,3.8 M 186.2,287.797 c 4.51,0.142 11.89,0.142 16.4,0 4.51,-0.143 0.82,-0.26 -8.2,-0.26 -9.02,0 -12.71,0.117 -8.2,0.26 m 47.6,18.391 c 2.09,0.165 5.51,0.165 7.6,0 2.09,-0.165 0.38,-0.3 -3.8,-0.3 -4.18,0 -5.89,0.135 -3.8,0.3 m -73.962,26.408 c 3.651,0.148 9.411,0.148 12.8,-0.002 3.389,-0.15 0.402,-0.271 -6.638,-0.27 -7.04,10e-4 -9.813,0.123 -6.162,0.272 m 27.605,11.201 c 4.754,0.142 12.314,0.142 16.8,-0.001 4.487,-0.142 0.597,-0.258 -8.643,-0.257 -9.24,0 -12.91,0.117 -8.157,0.258"
       inkscape:connector-curvature="0"
       style="fill:#dce1f1;fill-rule:evenodd;stroke:none" />
  </g>
</svg>
